<svg xmlns="http://www.w3.org/2000/svg" viewBox="0 0 1200 630" role="img" aria-labelledby="t d"><title id="t">CompTIA Network+ · ATC</title><desc id="d">Capa de curso ATC com nós e ligações de rede.</desc><defs><linearGradient id="b" x2="1" y2="1"><stop stop-color="#e8f0f6"/><stop offset="1" stop-color="#d3e2ed"/></linearGradient><linearGradient id="a"><stop stop-color="#285f82"/><stop offset="1" stop-color="#4a93ab"/></linearGradient></defs><rect width="1200" height="630" fill="url(#b)"/><circle cx="1080" cy="50" r="240" fill="#fff" opacity=".43"/><circle cx="1040" cy="610" r="210" fill="#8fb8c6" opacity=".2"/><text x="70" y="100" fill="#2b6680" font-family="Arial,sans-serif" font-size="22" letter-spacing="5">ATC  /  ACADEMIA DIGITAL</text><text x="70" y="275" fill="#102b43" font-family="Arial,sans-serif" font-size="65" font-weight="700">CompTIA Network+</text><text x="74" y="328" fill="#51677e" font-family="Arial,sans-serif" font-size="27">Ligue sistemas. Resolva falhas.</text><text x="74" y="367" fill="#51677e" font-family="Arial,sans-serif" font-size="27">Mantenha a informação em movimento.</text><rect x="75" y="418" width="174" height="42" rx="21" fill="#fff"/><text x="162" y="446" text-anchor="middle" fill="#2f718b" font-family="Arial,sans-serif" font-size="15" font-weight="700" letter-spacing="2">FORMAÇÃO</text><g transform="translate(747 110)"><path d="M74 103 183 52 278 132 208 236 87 225 74 103M183 52l25 184M74 103l204 29M87 225l191-93" fill="none" stroke="#aac7d2" stroke-width="7" stroke-linecap="round"/><circle cx="74" cy="103" r="42" fill="url(#a)"/><circle cx="183" cy="52" r="42" fill="#fff" stroke="#3d829d" stroke-width="7"/><circle cx="278" cy="132" r="42" fill="url(#a)"/><circle cx="208" cy="236" r="42" fill="#fff" stroke="#3d829d" stroke-width="7"/><circle cx="87" cy="225" r="42" fill="url(#a)"/><circle cx="74" cy="103" r="11" fill="#fff"/><circle cx="183" cy="52" r="11" fill="#e96b22"/><circle cx="278" cy="132" r="11" fill="#fff"/><circle cx="208" cy="236" r="11" fill="#e96b22"/><circle cx="87" cy="225" r="11" fill="#fff"/><rect x="105" y="310" width="180" height="10" rx="5" fill="#8db0c0"/></g><text x="75" y="575" fill="#61768a" font-family="Arial,sans-serif" font-size="17" letter-spacing="2">APRENDER · PRATICAR · EVOLUIR</text></svg>
